<?xml version="1.0"?>
<svg xmlns="http://www.w3.org/2000/svg" viewBox="0 0 16 16">
    <path style="line-height:normal;text-indent:0;text-align:start;text-decoration-line:none;text-decoration-style:solid;text-decoration-color:#000;text-transform:none;block-progression:tb;isolation:auto;mix-blend-mode:normal" d="M 2.5 2 A 0.50005 0.50005 0 0 0 2 2.5 L 2 13.5 A 0.50005 0.50005 0 0 0 2.5 14 L 6.5 14 A 0.50005 0.50005 0 0 0 7 13.5 L 7 2.5 A 0.50005 0.50005 0 0 0 6.5 2 L 2.5 2 z M 3 3 L 6 3 L 6 13 L 3 13 L 3 3 z M 9.65625 3.0175781 C 9.526375 3.0175781 9.3981875 3.0642031 9.3046875 3.1582031 L 8 4.4628906 L 8 6.8046875 L 9.65625 8.4609375 L 8.2421875 9.8769531 L 8 9.6328125 L 8 11.533203 L 8.5957031 10.9375 L 10.716797 8.8144531 L 12.837891 6.6933594 C 13.033891 6.4983594 13.034844 6.1813281 12.839844 5.9863281 L 10.011719 3.1582031 C 9.9177187 3.0642031 9.786125 3.0175781 9.65625 3.0175781 z M 9.65625 4.21875 L 11.777344 6.3417969 L 10.363281 7.7558594 L 8.2421875 5.6347656 L 9.65625 4.21875 z M 11.947266 9 L 11.425781 9.5214844 L 10 10.947266 L 10 13 L 8 13 L 8 14 L 10.5 14 L 13.5 14 C 13.776 14 14 13.776 14 13.5 L 14 9.5 C 14 9.224 13.776 9 13.5 9 L 11.947266 9 z M 11 10 L 13 10 L 13 13 L 11 13 L 11 10 z M 4.5 11.001953 A 0.5 0.5 0 0 0 4 11.501953 A 0.5 0.5 0 0 0 4.5 12.001953 A 0.5 0.5 0 0 0 5 11.501953 A 0.5 0.5 0 0 0 4.5 11.001953 z" font-weight="400" font-family="sans-serif" white-space="normal" overflow="visible"/>
</svg>
