<?xml version="1.0" encoding="UTF-8"?>
<svg xmlns="http://www.w3.org/2000/svg" xmlns:xlink="http://www.w3.org/1999/xlink" viewBox="0 0 16 16" version="1.1">
<g id="surface1">
<path style=" " d="M 3.507813 1 C 2.683594 1 2.003906 1.675781 2.003906 2.5 L 2.003906 4.226563 L 2 4.210938 C 1.226563 4.492188 0.820313 5.363281 1.101563 6.132813 L 2.875 11.015625 C 3.085938 11.589844 3.625 11.960938 4.203125 11.996094 L 5.410156 13.457031 C 5.933594 14.09375 6.886719 14.1875 7.523438 13.664063 L 7.523438 13.660156 L 13.453125 8.773438 C 13.789063 8.492188 13.980469 8.09375 14 7.6875 L 13.976563 7.6875 C 13.984375 7.625 13.996094 7.566406 13.996094 7.5 L 14 2.507813 C 14 1.683594 13.324219 1.007813 12.5 1.007813 Z M 3.503906 2 L 9 2.003906 L 9 8 L 3.5 8 C 3.21875 8 3 7.78125 3 7.5 L 3.003906 2.5 C 3.003906 2.214844 3.222656 2 3.503906 2 Z M 10 2.003906 L 12.5 2.007813 C 12.78125 2.007813 13 2.222656 13 2.507813 L 12.996094 7.5 C 12.996094 7.785156 12.78125 8 12.496094 8 L 10 8 Z M 11.5 3 C 11.222656 3 11 3.222656 11 3.5 C 11 3.777344 11.222656 4 11.5 4 C 11.777344 4 12 3.777344 12 3.5 C 12 3.222656 11.777344 3 11.5 3 Z M 3.195313 8.96875 C 3.195313 8.96875 3.199219 8.96875 3.199219 8.96875 C 3.296875 8.988281 3.398438 9 3.5 9 L 9.871094 9 L 4.457031 10.96875 C 4.191406 11.066406 3.914063 10.9375 3.816406 10.671875 Z M 10.671875 9.773438 L 6.886719 12.890625 C 6.667969 13.070313 6.359375 13.039063 6.179688 12.824219 L 5.285156 11.734375 Z "/>
</g>
</svg>
