<?xml version="1.0" encoding="UTF-8"?>
<svg xmlns="http://www.w3.org/2000/svg" xmlns:xlink="http://www.w3.org/1999/xlink" viewBox="0 0 16 16" version="1.1">
<g id="surface1">
<path style=" " d="M 5.5 1 C 5.222656 1 5 1.222656 5 1.5 L 5 2 L 2 2 L 2 3 L 5 3 L 5 3.5 C 5 3.777344 5.222656 4 5.5 4 L 7.5 4 C 7.777344 4 8 3.777344 8 3.5 L 8 3 L 14 3 L 14 2 L 8 2 L 8 1.5 C 8 1.222656 7.777344 1 7.5 1 Z M 6 2 L 7 2 L 7 3 L 6 3 Z M 9.5 6 C 9.222656 6 9 6.222656 9 6.5 L 9 7 L 2 7 L 2 8 L 9 8 L 9 8.5 C 9 8.777344 9.222656 9 9.5 9 L 11.5 9 C 11.777344 9 12 8.777344 12 8.5 L 12 8 L 14 8 L 14 7 L 12 7 L 12 6.5 C 12 6.222656 11.777344 6 11.5 6 Z M 10 7 L 11 7 L 11 8 L 10 8 Z M 3.5 11 C 3.222656 11 3 11.222656 3 11.5 L 3 12 L 2 12 L 2 13 L 3 13 L 3 13.5 C 3 13.777344 3.222656 14 3.5 14 L 5.5 14 C 5.777344 14 6 13.777344 6 13.5 L 6 13 L 14 13 L 14 12 L 6 12 L 6 11.5 C 6 11.222656 5.777344 11 5.5 11 Z M 4 12 L 5 12 L 5 13 L 4 13 Z "/>
</g>
</svg>
